<?xml version="1.0" encoding="utf-8"?>
<svg viewBox="0 0 437.181 500" xmlns="http://www.w3.org/2000/svg">
  <path d="M 385.061 0.963 L 52.094 0.963 C 24.014 0.963 1.152 23.823 1.152 52.151 L 1.152 388.103 C 1.152 416.431 24.012 439.291 52.092 439.291 L 333.874 439.291 L 320.703 393.321 L 352.51 422.891 L 382.576 450.721 L 436.001 497.933 L 436.001 52.151 C 436.001 23.823 413.141 0.963 385.061 0.963 Z M 289.146 325.486 C 289.146 325.486 280.201 314.8 272.746 305.357 C 305.298 296.163 317.722 275.788 317.722 275.788 C 307.534 282.497 297.843 287.219 289.146 290.447 C 276.722 295.667 264.795 299.144 253.117 301.133 C 229.261 305.605 207.395 304.364 188.759 300.885 C 174.594 298.15 162.418 294.175 152.232 290.201 C 146.516 287.963 140.304 285.23 134.09 281.752 C 133.346 281.254 132.6 281.006 131.855 280.508 C 131.481 280.323 131.145 280.07 130.861 279.764 C 126.389 277.279 123.903 275.54 123.903 275.54 C 123.903 275.54 135.831 295.419 167.388 304.86 C 159.935 314.304 150.74 325.484 150.74 325.484 C 95.823 323.745 74.952 287.715 74.952 287.715 C 74.952 207.703 110.734 142.848 110.734 142.848 C 146.516 116.011 180.558 116.757 180.558 116.757 L 183.043 119.74 C 138.316 132.658 117.692 152.291 117.692 152.291 C 117.692 152.291 123.158 149.309 132.351 145.085 C 158.939 133.405 180.062 130.176 188.759 129.43 C 190.249 129.181 191.492 128.933 192.983 128.933 C 209.635 126.764 226.487 126.597 243.178 128.437 C 266.782 131.17 292.129 138.127 317.97 152.291 C 317.97 152.291 298.341 133.655 256.098 120.733 L 259.576 116.759 C 259.576 116.759 293.619 116.011 329.4 142.85 C 329.4 142.85 365.184 207.703 365.184 287.715 C 365.184 287.715 344.061 323.745 289.146 325.484 L 289.146 325.486 Z M 173.6 209.443 C 159.437 209.443 148.257 221.866 148.257 237.023 C 148.257 252.182 159.685 264.606 173.6 264.606 C 187.765 264.606 198.946 252.182 198.946 237.023 C 199.195 221.866 187.765 209.443 173.602 209.443 M 264.299 209.443 C 250.134 209.443 238.952 221.866 238.952 237.023 C 238.952 252.182 250.383 264.606 264.299 264.606 C 278.462 264.606 289.642 252.182 289.642 237.023 C 289.642 221.866 278.462 209.443 264.299 209.443" fill="#FFFFFF" style=""/>
</svg>