<?xml version="1.0" encoding="utf-8"?>
<svg viewBox="-6.691 317.878 503.966 182.122" xmlns="http://www.w3.org/2000/svg">
  <ellipse cx="244.913" cy="574.859" rx="241.255" ry="242.74" fill="#4B0905" style=""/>
  <circle cx="244.913" cy="574.859" r="203.398" fill="#EB5328" style=""/>
  <path d="M 184.785 574.115 C 184.785 677.019 348.559 760.44 245.654 760.44 C 142.752 760.44 59.331 677.019 59.331 574.115 C 59.331 471.213 142.752 387.791 245.654 387.791 C 348.559 387.791 184.785 471.213 184.785 574.115 Z" fill="#EE8334" style=""/>
  <circle cx="218.366" cy="472.638" r="16.629" fill="#EB5328" style=""/>
  <path d="M 336.471 351.295 C 336.604 350.664 337.509 350.682 337.621 351.316 L 339.868 364.2 C 339.904 364.405 340.046 364.577 340.243 364.649 L 348.572 367.707 C 349.097 367.899 349.08 368.647 348.547 368.815 L 340.276 371.44 C 340.062 371.508 339.905 371.692 339.873 371.916 L 337.623 387.454 C 337.528 388.112 336.582 388.128 336.467 387.472 L 333.71 371.892 C 333.672 371.681 333.525 371.508 333.325 371.439 L 325.724 368.811 C 325.21 368.634 325.192 367.915 325.697 367.714 L 333.359 364.649 C 333.54 364.577 333.673 364.418 333.715 364.226 L 336.471 351.295 Z" fill="#F6F5F2" style=""/>
  <path d="M 311.33 376.715 C 311.409 376.343 311.941 376.354 312.007 376.727 L 313.33 384.316 C 313.352 384.437 313.436 384.538 313.551 384.58 L 318.458 386.381 C 318.766 386.494 318.757 386.935 318.442 387.034 L 313.57 388.58 C 313.445 388.621 313.353 388.73 313.334 388.861 L 312.008 398.013 C 311.952 398.401 311.395 398.411 311.327 398.024 L 309.703 388.846 C 309.681 388.722 309.594 388.621 309.476 388.58 L 304.999 387.032 C 304.697 386.928 304.686 386.504 304.984 386.385 L 309.496 384.58 C 309.604 384.538 309.682 384.444 309.706 384.332 L 311.33 376.715 Z" fill="#F6F5F2" style=""/>
  <path d="M 327.25 389.544 C 327.292 389.34 327.583 389.347 327.62 389.55 L 328.344 393.704 C 328.355 393.77 328.402 393.826 328.464 393.848 L 331.151 394.834 C 331.32 394.896 331.314 395.138 331.142 395.192 L 328.476 396.038 C 328.408 396.061 328.356 396.121 328.346 396.192 L 327.621 401.202 C 327.59 401.414 327.285 401.419 327.248 401.207 L 326.359 396.184 C 326.347 396.116 326.299 396.061 326.234 396.038 L 323.784 395.191 C 323.618 395.134 323.612 394.902 323.775 394.837 L 326.245 393.848 C 326.305 393.826 326.348 393.775 326.361 393.713 L 327.25 389.544 Z" fill="#F6F5F2" style=""/>
</svg>